<?xml version="1.0" encoding="utf-8"?>
<svg fill="none" height="401" viewBox="0 0 403 401" width="403" xmlns="http://www.w3.org/2000/svg">
<g clip-path="url(#clip0_35_10)">
<path clip-rule="evenodd" d="M249.14 2.04431C257.413 -0.742959 266.338 -0.742959 274.612 2.04431L375.383 35.5844C391.837 41.066 402.9 56.4889 402.9 73.7699V353.426C402.9 380.927 375.941 400.344 349.911 391.611L261.969 362.345L153.853 398.393C145.579 401.181 136.655 401.181 128.381 398.393L27.5169 364.853C11.0626 359.372 0 344.042 0 326.668V47.0122C0 19.5112 26.9592 0.0932207 52.9887 8.73374L140.931 38L249.14 2.04431ZM261.876 40.2298L153.76 76.2785C145.487 79.0657 136.562 79.0657 128.288 76.2785L40.2528 47.0122V326.668L141.024 360.208L249.14 324.159C257.413 321.372 266.338 321.372 274.612 324.159L362.554 353.426V73.8628L261.876 40.2298ZM80.5986 280.771C91.7541 280.771 100.771 271.759 100.771 260.61C100.771 249.461 91.7541 240.448 80.5986 240.448C69.4431 240.448 60.4257 249.553 60.4257 260.61C60.4257 271.759 69.4431 280.771 80.5986 280.771ZM141.024 200.219C141.024 211.368 132.007 220.38 120.851 220.38C109.696 220.38 100.679 211.368 100.679 200.219C100.679 189.07 109.696 180.058 120.851 180.058C132.007 180.058 141.024 189.163 141.024 200.219ZM181.277 200.219C192.433 200.219 201.45 191.207 201.45 180.058C201.45 168.909 192.433 159.896 181.277 159.896C170.122 159.896 161.104 168.909 161.104 180.058C161.197 191.207 170.215 200.219 181.277 200.219ZM328.716 121.618H306.126C308.543 127.285 307.52 133.975 302.872 138.62L276.936 164.542V173.368C276.936 178.385 281.026 182.473 286.046 182.473H328.623C333.643 182.473 337.733 178.385 337.733 173.368V130.816C337.826 125.706 333.736 121.618 328.716 121.618ZM307.427 156.552C304.917 156.552 302.872 154.508 302.872 151.999C302.872 149.491 304.917 147.447 307.427 147.447C309.937 147.447 311.983 149.491 311.983 151.999C311.983 154.508 309.937 156.552 307.427 156.552ZM298.596 121.061L265.315 87.7992C261.69 84.1757 255.74 84.1757 252.115 87.7992L218.834 121.061C215.208 124.684 215.208 130.63 218.834 134.254L252.115 167.515C255.74 171.138 261.69 171.138 265.315 167.515L298.596 134.254C302.221 130.63 302.221 124.684 298.596 121.061ZM234.359 132.21C231.849 132.21 229.804 130.166 229.804 127.657C229.804 125.149 231.849 123.105 234.359 123.105C236.869 123.105 238.914 125.149 238.914 127.657C238.914 130.166 236.869 132.21 234.359 132.21ZM258.715 156.552C256.205 156.552 254.16 154.508 254.16 151.999C254.16 149.491 256.205 147.447 258.715 147.447C261.225 147.447 263.27 149.491 263.27 151.999C263.27 154.508 261.225 156.552 258.715 156.552ZM258.715 132.21C256.205 132.21 254.16 130.166 254.16 127.657C254.16 125.149 256.205 123.105 258.715 123.105C261.225 123.105 263.27 125.149 263.27 127.657C263.27 130.166 261.225 132.21 258.715 132.21ZM258.715 107.867C256.205 107.867 254.16 105.823 254.16 103.315C254.16 100.806 256.205 98.7624 258.715 98.7624C261.225 98.7624 263.27 100.806 263.27 103.315C263.27 105.823 261.225 107.867 258.715 107.867ZM283.071 132.21C280.561 132.21 278.516 130.166 278.516 127.657C278.516 125.149 280.561 123.105 283.071 123.105C285.581 123.105 287.626 125.149 287.626 127.657C287.626 130.166 285.581 132.21 283.071 132.21Z" fill="#372F2F" fill-rule="evenodd"/>
</g>
<defs>
<clipPath id="clip0_35_10">
<rect fill="white" height="400.53" width="402.9"/>
</clipPath>
</defs>
</svg>